<svg width="39" height="39" viewBox="0 0 39 39" fill="none" xmlns="http://www.w3.org/2000/svg">
<path d="M5.98451 1.26241C4.83723 -0.175976 2.72963 -0.421308 1.2764 0.712931C-0.176827 1.84717 -0.42668 3.93081 0.720604 5.36751C1.70812 6.60426 3.4061 6.95545 4.78794 6.30683L8.93176 11.4991L10.1062 10.5833L5.96242 5.39104C6.92104 4.21311 6.97033 2.49915 5.98451 1.26241Z" fill="#21B9C6"/>
<path d="M33.0162 1.2624C34.1635 -0.174306 36.2711 -0.419638 37.7243 0.712921C39.1775 1.84716 39.4257 3.9308 38.2801 5.3675C37.2926 6.60425 35.5946 6.95544 34.2128 6.30682L30.0689 11.4991L28.8945 10.5833L33.0383 5.39103C32.0797 4.2131 32.0304 2.49914 33.0162 1.2624Z" fill="#21B9C6"/>
<path d="M37.3709 20.5814C37.3709 26.9315 33.9341 32.4884 28.7977 35.5299C26.153 37.0993 23.0596 38 19.752 38C15.9141 38 12.3635 36.7868 9.47064 34.7283C5.02597 31.5659 2.13312 26.4072 2.13312 20.5814C2.13312 19.6136 2.213 18.6625 2.36767 17.7383C6.59308 22.5592 12.8326 25.6091 19.7928 25.6091C26.753 25.6091 32.9245 22.5911 37.1482 17.8139C37.2944 18.7146 37.3709 19.6388 37.3709 20.5814Z" fill="#21B9C6" stroke="white" stroke-miterlimit="10"/>
<path d="M37.1481 17.6458C32.9244 22.4231 26.7155 25.441 19.7927 25.441C12.8699 25.441 6.59296 22.3911 2.36755 17.5702C3.7409 9.30286 11.0002 2.99481 19.7519 2.99481C28.5035 2.99481 35.8071 9.33983 37.1481 17.6458Z" fill="black" stroke="white" stroke-miterlimit="10"/>
<path d="M13.3935 18.3163C14.2214 18.3163 14.8926 17.1051 14.8926 15.6109C14.8926 14.1168 14.2214 12.9056 13.3935 12.9056C12.5655 12.9056 11.8943 14.1168 11.8943 15.6109C11.8943 17.1051 12.5655 18.3163 13.3935 18.3163Z" fill="white"/>
<path d="M24.416 18.3163C25.244 18.3163 25.9152 17.1051 25.9152 15.6109C25.9152 14.1168 25.244 12.9056 24.416 12.9056C23.5881 12.9056 22.9169 14.1168 22.9169 15.6109C22.9169 17.1051 23.5881 18.3163 24.416 18.3163Z" fill="white"/>
<path d="M28.7978 35.5299C26.1531 37.0993 23.0597 38 19.7521 38C15.9143 38 12.3636 36.7868 9.47076 34.7283C10.8254 33.0665 14.5392 31.8734 18.9074 31.8734C23.9503 31.8734 28.1214 33.4647 28.7978 35.5299Z" fill="url(#paint0_linear_1879_5259)"/>
<path d="M10.6604 5.44144C13.3051 3.87198 16.3985 2.97131 19.7061 2.97131C23.544 2.97131 27.0946 4.18453 29.9875 6.24296C28.6328 7.90484 24.919 9.09789 20.5508 9.09789C15.5079 9.09789 11.3369 7.50659 10.6604 5.44144Z" fill="url(#paint1_linear_1879_5259)"/>
<defs>
<linearGradient id="paint0_linear_1879_5259" x1="19.0553" y1="29.289" x2="19.2081" y2="40.7793" gradientUnits="userSpaceOnUse">
<stop offset="0.11" stop-color="white" stop-opacity="0.3"/>
<stop offset="0.36" stop-color="#FDE7CC" stop-opacity="0.23"/>
<stop offset="0.85" stop-color="#F8A94A" stop-opacity="0.06"/>
<stop offset="1" stop-color="#F7941D" stop-opacity="0"/>
</linearGradient>
<linearGradient id="paint1_linear_1879_5259" x1="20.403" y1="11.6823" x2="20.2501" y2="0.19196" gradientUnits="userSpaceOnUse">
<stop stop-color="white" stop-opacity="0.1"/>
<stop offset="0.71" stop-color="#797F8F" stop-opacity="0.03"/>
<stop offset="1" stop-color="#374058" stop-opacity="0"/>
</linearGradient>
</defs>
</svg>
