<svg width="16" height="16" viewBox="0 0 16 16" fill="none" xmlns="http://www.w3.org/2000/svg">
<path d="M14.5149 12.4689C14.2707 13.0279 13.9817 13.5424 13.6469 14.0155C13.1904 14.6604 12.8167 15.1068 12.5286 15.3547C12.0821 15.7616 11.6038 15.97 11.0915 15.9818C10.7237 15.9818 10.2802 15.8781 9.76398 15.6678C9.24604 15.4584 8.77005 15.3547 8.33482 15.3547C7.87836 15.3547 7.38882 15.4584 6.86519 15.6678C6.34076 15.8781 5.91829 15.9878 5.59528 15.9986C5.10405 16.0194 4.6144 15.8051 4.12566 15.3547C3.81371 15.0851 3.42353 14.6229 2.95611 13.9681C2.45461 13.2688 2.0423 12.458 1.71929 11.5336C1.37336 10.5351 1.19995 9.5682 1.19995 8.63213C1.19995 7.55987 1.43376 6.63506 1.90208 5.86007C2.27013 5.23757 2.75978 4.74652 3.3726 4.38604C3.98543 4.02556 4.64759 3.84186 5.36068 3.83011C5.75086 3.83011 6.26253 3.94971 6.89838 4.18476C7.53243 4.42061 7.93956 4.54021 8.11805 4.54021C8.2515 4.54021 8.70377 4.40036 9.47048 4.12156C10.1955 3.863 10.8075 3.75594 11.3088 3.79811C12.6672 3.90675 13.6877 4.4374 14.3664 5.39342C13.1515 6.12288 12.5506 7.14457 12.5625 8.45525C12.5735 9.47616 12.9472 10.3257 13.6817 11.0003C14.0146 11.3133 14.3864 11.5553 14.8 11.7272C14.7103 11.9849 14.6156 12.2318 14.5149 12.4689ZM11.3995 0.320091C11.3995 1.12027 11.1045 1.8674 10.5164 2.55894C9.80684 3.38104 8.94854 3.85608 8.01779 3.78112C8.00593 3.68512 7.99905 3.58409 7.99905 3.47792C7.99905 2.70975 8.33651 1.88765 8.93579 1.21547C9.23497 0.875136 9.61549 0.592152 10.0769 0.36641C10.5374 0.144037 10.9729 0.0210593 11.3825 0C11.3945 0.106972 11.3995 0.213951 11.3995 0.320081V0.320091Z" fill="white"/>
</svg>
