<svg width="73" height="61" viewBox="0 0 73 61" fill="none" xmlns="http://www.w3.org/2000/svg">
<path d="M62.6325 1.26367C52.0999 -3.00279 46.7196 4.92435 41.1179 4.92435C35.5161 4.92435 30.1358 -3.00931 19.6097 1.26367C9.08359 5.53664 8.62764 17.7302 11.3178 27.4877C14.0079 37.2452 23.5961 55.7897 25.5241 57.0077C27.4522 58.2258 32.2918 58.2258 33.1907 56.3954C34.0896 54.5651 35.8809 48.3836 36.2131 46.0648C36.5453 43.7459 38.812 41.427 41.1179 41.427C43.9188 41.427 45.6905 43.7459 46.0227 46.0648C46.3614 48.3836 48.1526 54.5651 49.045 56.3954C49.9439 58.2258 54.7836 58.2258 56.7116 57.0077C58.6397 55.7897 68.2278 37.2452 70.9179 27.4877C73.6081 17.7302 73.1587 5.53013 62.626 1.26367H62.6325Z" fill="#E6E6E6"/>
<path d="M63.232 6.60466C55.142 2.41636 50.413 9.7182 41.1245 9.7182C31.836 9.7182 27.1006 2.42288 19.0106 6.60466C10.9206 10.793 15.8059 31.513 23.0882 37.1864C30.3704 42.8663 31.7318 33.5192 41.1245 33.5192C50.5173 33.5192 51.8786 42.8663 59.1609 37.1864C66.4432 31.5065 71.3285 10.7864 63.2385 6.60466H63.232Z" fill="#F2F2F2"/>
<path d="M54.5363 9.71841C48.0291 11.5162 47.7621 15.7631 49.2277 19.7886C50.6932 23.8205 55.4547 30.9204 59.6691 28.9272C63.8834 26.9341 64.613 19.6062 64.2482 15.2094C63.8834 10.8127 59.8515 8.25283 54.5428 9.71841H54.5363Z" fill="white"/>
<path d="M70.7292 20.0879C66.2934 18.2055 66.4237 14.7272 66.4237 14.7272C66.4237 14.7272 66.554 18.2055 62.1182 20.0879C66.554 21.9704 66.4237 25.4487 66.4237 25.4487C66.4237 25.4487 66.2934 21.9704 70.7292 20.0879Z" fill="#46B1AA"/>
<path d="M63.3623 15.6523C61.2714 14.7664 61.3365 13.125 61.3365 13.125C61.3365 13.125 61.4017 14.7599 59.3108 15.6523C61.4017 16.5382 61.3365 18.1796 61.3365 18.1796C61.3365 18.1796 61.2714 16.5447 63.3623 15.6523Z" fill="#46B1AA"/>
<path d="M19.1927 21.2018C19.1927 21.2018 8.7513 25.5985 0.146729 32.744C0.146729 32.744 2.52422 47.2109 5.82666 51.4253C9.12258 55.6396 19.1927 60.5835 19.1927 60.5835C19.1927 60.5835 29.2629 55.6396 32.5588 51.4253C35.8547 47.2109 38.2387 32.744 38.2387 32.744C29.6342 25.605 19.1927 21.2083 19.1927 21.2083V21.2018Z" fill="#0E6B96"/>
<path d="M19.1924 24.7974C19.1924 24.7974 10.6595 28.3865 3.62476 34.2292C3.62476 34.2292 5.57235 46.0516 8.2625 49.4973C10.9592 52.943 19.1859 56.9815 19.1859 56.9815C19.1859 56.9815 27.4192 52.943 30.1094 49.4973C32.806 46.0581 34.7471 34.2292 34.7471 34.2292C27.7123 28.393 19.1794 24.7974 19.1794 24.7974H19.1924Z" fill="#46B1AA"/>
<path d="M26.5661 38.7368H21.3421V33.5193H17.0431V38.7368H11.8191V43.0423H17.0431V48.2598H21.3421V43.0423H26.5661V38.7368Z" fill="white"/>
</svg>
