<svg width="131" height="14" viewBox="0 0 131 14" fill="none" xmlns="http://www.w3.org/2000/svg">
<path d="M5.23313 0.309999C6.56513 0.309999 7.72913 0.579999 8.72513 1.12C9.73313 1.648 10.5071 2.392 11.0471 3.352C11.5871 4.312 11.8571 5.41 11.8571 6.646C11.8571 7.87 11.5811 8.962 11.0291 9.922C10.4891 10.882 9.71513 11.638 8.70712 12.19C7.71113 12.73 6.55313 13 5.23313 13H0.211125V0.309999H5.23313ZM4.96313 9.886C5.99513 9.886 6.80513 9.604 7.39313 9.04C7.98113 8.476 8.27513 7.678 8.27513 6.646C8.27513 5.602 7.98113 4.798 7.39313 4.234C6.80513 3.658 5.99513 3.37 4.96313 3.37H3.73913V9.886H4.96313ZM17.2255 3.136V5.206H21.2755V7.888H17.2255V10.174H21.8155V13H13.6975V0.309999H21.8155V3.136H17.2255ZM35.5628 13H32.0348L27.3368 5.908V13H23.8088V0.309999H27.3368L32.0348 7.492V0.309999H35.5628V13ZM47.3805 0.309999V3.118H43.9965V13H40.4685V3.118H37.1205V0.309999H47.3805ZM56.9637 10.93H52.4637L51.7797 13H48.0717L52.6977 0.309999H56.7657L61.3737 13H57.6477L56.9637 10.93ZM56.0817 8.23L54.7137 4.126L53.3637 8.23H56.0817ZM71.2569 13.126C69.7809 13.126 68.5689 12.778 67.6209 12.082C66.6729 11.374 66.1629 10.366 66.0909 9.058H69.8529C69.8889 9.502 70.0209 9.826 70.2489 10.03C70.4769 10.234 70.7709 10.336 71.1309 10.336C71.4549 10.336 71.7189 10.258 71.9229 10.102C72.1389 9.934 72.2469 9.706 72.2469 9.418C72.2469 9.046 72.0729 8.758 71.7249 8.554C71.3769 8.35 70.8129 8.122 70.0329 7.87C69.2049 7.594 68.5329 7.33 68.0169 7.078C67.5129 6.814 67.0689 6.436 66.6849 5.944C66.3129 5.44 66.1269 4.786 66.1269 3.982C66.1269 3.166 66.3309 2.47 66.7389 1.894C67.1469 1.306 67.7109 0.862 68.4309 0.561999C69.1509 0.261999 69.9669 0.112 70.8789 0.112C72.3549 0.112 73.5309 0.459999 74.4069 1.156C75.2949 1.84 75.7689 2.806 75.8289 4.054H71.9949C71.9829 3.67 71.8629 3.382 71.6349 3.19C71.4189 2.998 71.1369 2.902 70.7889 2.902C70.5249 2.902 70.3089 2.98 70.1409 3.136C69.9729 3.292 69.8889 3.514 69.8889 3.802C69.8889 4.042 69.9789 4.252 70.1589 4.432C70.3509 4.6 70.5849 4.75 70.8609 4.882C71.1369 5.002 71.5449 5.158 72.0849 5.35C72.8889 5.626 73.5489 5.902 74.0649 6.178C74.5929 6.442 75.0429 6.82 75.4149 7.312C75.7989 7.792 75.9909 8.404 75.9909 9.148C75.9909 9.904 75.7989 10.582 75.4149 11.182C75.0429 11.782 74.4969 12.256 73.7769 12.604C73.0689 12.952 72.2289 13.126 71.2569 13.126ZM92.695 0.309999V13H89.167V5.998L86.773 13H83.821L81.409 5.944V13H77.881V0.309999H82.147L85.333 8.554L88.447 0.309999H92.695ZM102.981 10.93H98.4813L97.7973 13H94.0893L98.7153 0.309999H102.783L107.391 13H103.665L102.981 10.93ZM102.099 8.23L100.731 4.126L99.3813 8.23H102.099ZM115.217 13L112.697 8.32H112.319V13H108.791V0.309999H114.353C115.373 0.309999 116.237 0.489999 116.945 0.85C117.653 1.198 118.187 1.684 118.547 2.308C118.907 2.92 119.087 3.61 119.087 4.378C119.087 5.242 118.847 6.004 118.367 6.664C117.899 7.312 117.209 7.774 116.297 8.05L119.159 13H115.217ZM112.319 5.908H114.065C114.545 5.908 114.905 5.794 115.145 5.566C115.385 5.338 115.505 5.008 115.505 4.576C115.505 4.168 115.379 3.85 115.127 3.622C114.887 3.382 114.533 3.262 114.065 3.262H112.319V5.908ZM130.5 0.309999V3.118H127.116V13H123.588V3.118H120.24V0.309999H130.5Z" fill="black"/>
</svg>
