<svg width="24" height="22" viewBox="0 0 24 22" fill="none" xmlns="http://www.w3.org/2000/svg">
<g clip-path="url(#clip0_1878_2426)">
<path d="M21.4428 3.66667C21.3566 3.65809 21.2696 3.65809 21.1834 3.66667H3.46838C3.35484 3.66836 3.24205 3.6848 3.13306 3.71556L12.2753 12.5094L21.4428 3.66667Z" fill="#1C2856"/>
<path d="M22.3793 4.51611L13.1675 13.3772C12.9304 13.6049 12.6097 13.7326 12.2754 13.7326C11.9411 13.7326 11.6204 13.6049 11.3833 13.3772L2.25376 4.58334C2.22569 4.68297 2.21081 4.78564 2.20947 4.88889V17.1111C2.20947 17.4353 2.34279 17.7461 2.58009 17.9754C2.81739 18.2046 3.13924 18.3333 3.47483 18.3333H21.1899C21.5255 18.3333 21.8473 18.2046 22.0846 17.9754C22.3219 17.7461 22.4552 17.4353 22.4552 17.1111V4.88889C22.4502 4.76157 22.4246 4.63579 22.3793 4.51611ZM4.3416 17.1111H3.46218V16.2372L8.06176 11.8311L8.95384 12.6928L4.3416 17.1111ZM21.1772 17.1111H20.2915L15.6792 12.6928L16.5713 11.8311L21.1709 16.2372L21.1772 17.1111Z" fill="#1C2856"/>
</g>
<defs>
<clipPath id="clip0_1878_2426">
<rect width="22.7765" height="22" fill="white" transform="translate(0.988281)"/>
</clipPath>
</defs>
</svg>
