<svg width="49" height="48" viewBox="0 0 49 48" fill="none" xmlns="http://www.w3.org/2000/svg">
<path d="M6.59265 33L6.59265 15C6.59266 14.6489 6.68624 14.3041 6.86398 14C7.04172 13.696 7.29736 13.4435 7.60521 13.268L23.3889 4.268C23.6969 4.09286 24.0461 4.00067 24.4015 4.00067C24.7569 4.00067 25.1061 4.09286 25.414 4.268L41.1978 13.268C41.5056 13.4435 41.7613 13.696 41.939 14C42.1167 14.3041 42.2103 14.6489 42.2103 15L42.2103 33C42.2103 33.3511 42.1167 33.6959 41.939 34C41.7613 34.304 41.5056 34.5565 41.1978 34.732L25.414 43.732C25.1061 43.9071 24.7569 43.9993 24.4015 43.9993C24.0461 43.9993 23.6969 43.9071 23.3889 43.732L7.60521 34.732C7.29736 34.5565 7.04172 34.304 6.86398 34C6.68624 33.6959 6.59266 33.3511 6.59265 33Z" fill="black"/>
</svg>
